PathFileType	4	(X/Y/Z)	TVC_58_Cal_02_0_static_RCNL2025.trc
DataRate	CameraRate	NumFrames	NumMarkers	Units	OrigDataRate	OrigDataStartFrame	OrigNumFrames
100	100	6	27	mm	100	26	102
Frame#	Time	R_Shoulder			L_Shoulder			C7			J_Notch			R_Elbow			L_Elbow			R_Wrist			L_Wrist			R_Asis			L_Asis			R_Psis			L_Psis			Sacral			Thoracic			Sternum			R_Thigh_Lateral			R_Knee_Lateral			R_Shank_Lateral			R_Ankle_Lateral			R_Heel			R_Toe			L_Thigh_Lateral			L_Knee_Lateral			L_Shank_Lateral			L_Ankle_Lateral			L_Heel			L_Toe		
		X1	Y1	Z1	X2	Y2	Z2	X3	Y3	Z3	X4	Y4	Z4	X5	Y5	Z5	X6	Y6	Z6	X7	Y7	Z7	X8	Y8	Z8	X9	Y9	Z9	X10	Y10	Z10	X11	Y11	Z11	X12	Y12	Z12	X13	Y13	Z13	X14	Y14	Z14	X15	Y15	Z15	X16	Y16	Z16	X17	Y17	Z17	X18	Y18	Z18	X19	Y19	Z19	X20	Y20	Z20	X21	Y21	Z21	X22	Y22	Z22	X23	Y23	Z23	X24	Y24	Z24	X25	Y25	Z25	X26	Y26	Z26	X27	Y27	Z27
26	0.25000000	-284.572144	1354.617798	-27.189964	-271.504669	1362.449585	-382.103821	-339.966614	1426.166748	-213.238281	-190.906769	1332.224487	-202.346680	-302.651489	1044.194092	55.675587	-322.043060	1053.009399	-456.648529	-218.465286	806.032349	89.331715	-263.227364	812.993286	-509.220078	-175.018555	910.081421	-58.380676	-165.869263	907.252991	-366.136169	-394.926361	965.656494	-151.395828	-396.914673	958.403442	-262.611664	-395.920517	962.029968	-207.003746	-376.466980	1119.659058	-211.004517	-85.605156	1082.901489	-210.616852	-228.194336	704.999268	32.497765	-236.502380	469.981659	-48.756618	-277.489960	272.786102	-2.468691	-308.332733	70.388107	-97.772270	-356.164185	61.297531	-156.160629	-178.895813	46.527340	-117.963753	-266.873077	676.218689	-446.704956	-236.305252	469.783600	-344.800751	-275.721649	286.582611	-404.097076	-322.764648	65.036888	-315.329895	-363.325745	57.748501	-261.900177	-184.263412	44.480003	-303.853455
27	0.26000000	-284.672058	1354.622559	-27.124449	-271.479248	1362.515625	-382.024994	-339.976440	1426.265747	-213.225769	-190.896530	1332.258423	-202.373428	-302.730469	1044.249268	55.748215	-321.997375	1053.026733	-456.558960	-218.567474	806.007599	89.469143	-263.233192	813.005920	-509.114517	-174.996872	910.048950	-58.339981	-165.902954	907.259583	-366.096283	-394.965698	965.684814	-151.193756	-396.865967	958.455627	-262.150818	-395.915833	962.070221	-206.672287	-376.436768	1119.690186	-210.895294	-85.622986	1083.085205	-210.597748	-228.318420	704.996216	32.499435	-236.545715	470.032562	-48.729706	-277.577820	272.664215	-2.274874	-308.427399	70.411736	-97.765427	-356.069519	61.226940	-156.131607	-178.898438	46.524830	-117.965240	-266.878632	676.300049	-446.603394	-236.385834	469.795715	-344.689209	-275.667358	286.592468	-404.171265	-322.696075	65.072144	-315.375763	-363.324829	57.755135	-261.896759	-184.304733	44.585411	-303.887726
28	0.27000000	-284.594421	1354.691406	-27.083046	-271.549103	1362.496460	-381.916229	-340.053986	1426.278320	-213.191895	-190.896896	1332.254150	-202.359375	-302.758270	1044.276855	55.862717	-322.072968	1053.040161	-456.437439	-218.844864	805.658447	89.407757	-263.189354	813.029236	-509.019333	-175.108887	909.999695	-58.271915	-165.952240	907.240601	-366.040466	-395.001587	965.697388	-151.054764	-397.005035	958.530212	-262.539032	-396.003311	962.113800	-206.796898	-376.525879	1119.708862	-210.826828	-85.674408	1083.026611	-210.555481	-228.429611	704.985474	32.541004	-236.560394	470.041779	-48.698753	-277.616608	272.677155	-2.289648	-308.492676	70.454437	-97.749489	-356.102722	61.231136	-156.177399	-178.905914	46.551300	-117.974594	-266.904938	676.371399	-446.625824	-236.379807	469.812714	-344.674255	-276.014130	286.628845	-403.917267	-322.695068	65.093430	-315.401215	-363.321075	57.763462	-261.902588	-184.362152	44.586899	-303.861725
29	0.28000000	-284.659576	1354.686157	-27.021353	-271.601562	1362.496216	-381.847961	-340.002502	1426.295044	-213.100174	-190.976547	1332.261475	-202.237793	-302.864563	1044.305542	55.942020	-322.141235	1052.953613	-456.351990	-218.657715	806.000092	89.626068	-263.147369	812.995880	-508.852676	-175.076218	910.061401	-58.201332	-166.041092	907.257202	-365.980286	-395.109131	965.761230	-150.971954	-396.914001	958.559265	-262.042145	-396.011566	962.160248	-206.507050	-376.520538	1119.751343	-210.688766	-85.670891	1082.888184	-210.399307	-228.511673	704.992554	32.620747	-236.665497	470.213104	-48.546196	-277.621735	272.683502	-2.314824	-308.443787	70.442055	-97.806343	-356.140869	61.255737	-156.158615	-178.896454	46.526485	-117.964897	-266.936890	676.388733	-446.610229	-236.377594	469.871185	-344.691467	-275.934967	286.625061	-403.979034	-322.738647	65.048691	-315.376373	-363.322052	57.750168	-261.903198	-184.324738	44.574894	-303.871338
30	0.29000000	-284.617035	1354.699829	-26.947502	-271.655640	1362.474487	-381.810059	-340.060181	1426.255615	-212.937866	-190.977463	1332.340088	-202.170807	-302.857697	1044.338501	56.017521	-322.160187	1052.988892	-456.119476	-218.798439	805.905792	89.483086	-263.194092	812.975342	-508.725708	-175.056946	910.089478	-58.071884	-166.061432	907.287048	-365.861877	-395.212860	965.797241	-150.905121	-396.978912	958.566895	-262.447906	-396.095886	962.182068	-206.676514	-376.621002	1119.748413	-210.595093	-85.917229	1082.065918	-209.816956	-228.732056	705.042603	32.747929	-236.654404	470.087433	-48.514145	-277.674194	272.591461	-2.216504	-308.474854	70.442978	-97.739616	-356.146332	61.289219	-156.153290	-178.881638	46.546181	-117.965813	-266.989044	676.367371	-446.536407	-236.453735	469.862946	-344.609955	-275.974030	286.644135	-403.847809	-322.754883	65.020996	-315.447021	-363.332977	57.754627	-261.885315	-184.369553	44.540901	-303.841461
31	0.30000000	-284.655853	1354.744873	-26.879503	-271.628479	1362.486084	-381.666870	-340.090210	1426.298462	-212.905899	-190.951263	1332.287476	-202.031296	-302.835693	1044.364502	56.131840	-322.208405	1052.992798	-456.078979	-218.897781	805.734222	89.558620	-263.052017	812.962463	-508.556030	-175.222626	910.035156	-58.014809	-166.122345	907.274902	-365.775726	-395.270538	965.854492	-150.844162	-397.050507	958.649658	-262.094910	-396.160522	962.252075	-206.469536	-376.684021	1119.793213	-210.510193	-85.983749	1081.848755	-209.646606	-228.880905	704.981995	32.777634	-236.632263	470.057373	-48.485100	-277.711639	272.591278	-2.141614	-308.540771	70.403435	-97.695450	-356.248596	61.196541	-156.152039	-178.904114	46.540607	-117.961456	-267.142273	676.417480	-446.412598	-236.411331	469.881348	-344.602631	-275.874420	286.578766	-404.016632	-322.804901	65.076431	-315.326569	-363.375519	57.530430	-261.746582	-184.310165	44.563042	-303.869598
